<?xml version="1.0" standalone="no"?>
<!DOCTYPE svg PUBLIC "-//W3C//DTD SVG 20010904//EN"
 "http://www.w3.org/TR/2001/REC-SVG-20010904/DTD/svg10.dtd">
<svg version="1.0" xmlns="http://www.w3.org/2000/svg"
 width="700.000000pt" height="700.000000pt" viewBox="0 0 700.000000 700.000000"
 preserveAspectRatio="xMidYMid meet">
<metadata>
Created by potrace 1.11, written by Peter Selinger 2001-2013
</metadata>
<g transform="translate(0.000000,700.000000) scale(0.100000,-0.100000)"
fill="#000000" stroke="none">
<path d="M5713 6704 c-158 -32 -278 -177 -287 -343 -5 -101 41 -212 117 -282
l39 -37 -64 -112 c-34 -61 -70 -123 -79 -138 -132 -222 -367 -680 -457 -892
-72 -171 -150 -398 -161 -470 -1 -3 -30 -6 -64 -6 -76 -2 -117 -21 -147 -68
-18 -30 -21 -48 -19 -121 4 -210 79 -435 207 -630 48 -72 195 -228 267 -282
168 -127 412 -222 611 -238 90 -7 197 -7 234 -1 14 3 48 7 75 11 142 17 336
94 481 190 88 59 218 179 275 255 18 25 36 47 40 50 17 13 102 175 133 253 69
171 104 441 67 511 -24 44 -71 67 -147 69 l-67 3 -22 85 c-23 85 -88 272 -123
351 -11 24 -36 81 -57 128 -43 97 -175 364 -227 460 -20 36 -49 90 -65 120
-35 66 -26 51 -158 277 -58 100 -105 186 -105 191 0 4 14 21 31 38 89 84 132
197 117 312 -29 221 -226 361 -445 316z m139 -291 c77 -69 -11 -192 -103 -143
-10 6 -25 23 -33 38 -43 86 64 170 136 105z m34 -725 c277 -484 496 -934 569
-1171 13 -45 22 -83 19 -86 -11 -12 -1364 -7 -1364 4 0 24 62 198 114 323 107
254 332 688 513 989 24 40 43 77 43 83 0 31 27 -6 106 -142z m812 -1547 c10
-1 12 -10 7 -33 -25 -124 -107 -308 -162 -366 -7 -7 -13 -16 -13 -20 0 -8 -93
-105 -141 -147 -153 -134 -383 -218 -594 -217 -99 1 -148 7 -244 33 -299 80
-545 315 -639 609 -29 91 -36 131 -24 139 8 5 1758 7 1810 2z"/>
<path d="M3415 6369 c-223 -42 -396 -222 -431 -446 l-6 -42 -92 -20 c-50 -11
-219 -48 -376 -82 -157 -33 -294 -63 -305 -65 -11 -3 -40 -9 -65 -14 -25 -5
-88 -19 -140 -30 -52 -11 -104 -22 -115 -24 -80 -16 -316 -68 -343 -75 -29 -8
-36 -6 -65 24 -43 43 -122 93 -171 106 -112 30 -246 1 -332 -72 -175 -147
-180 -415 -12 -557 16 -13 28 -28 28 -33 0 -5 -60 -114 -133 -242 -135 -235
-238 -425 -333 -617 -122 -248 -224 -501 -267 -666 l-24 -89 -62 -2 c-81 -4
-122 -24 -150 -74 -20 -36 -22 -49 -17 -127 16 -240 73 -414 204 -612 50 -75
181 -218 252 -275 208 -166 485 -259 765 -257 83 1 108 3 190 18 434 78 785
378 931 796 41 115 53 182 61 325 5 92 4 105 -16 136 -28 46 -75 67 -149 67
-60 0 -60 0 -68 33 -10 42 -9 36 -23 86 -15 54 -87 252 -111 306 -10 22 -32
74 -50 115 -40 90 -183 384 -243 495 -48 91 -183 332 -197 355 -26 40 -130
222 -130 227 0 3 20 25 45 49 41 40 80 108 102 179 10 30 26 36 163 61 19 3
38 8 41 10 4 2 24 6 45 10 22 3 57 10 79 16 22 5 50 12 62 14 13 3 220 47 460
99 241 51 449 96 463 99 38 7 123 26 142 32 12 3 22 -5 34 -28 9 -18 30 -48
48 -66 l31 -33 0 -1945 c0 -1070 -3 -1947 -6 -1949 -3 -2 -89 -5 -191 -6 -206
-2 -232 -8 -271 -63 -21 -29 -22 -43 -24 -221 -1 -104 -2 -194 -3 -200 0 -6
-75 -10 -205 -10 -225 -1 -229 -2 -279 -69 -20 -26 -21 -40 -21 -329 0 -284 1
-304 20 -336 42 -72 -50 -67 1362 -67 1206 1 1270 2 1296 19 16 10 37 32 47
50 19 30 20 52 20 325 0 329 -2 343 -66 383 -37 22 -46 23 -239 24 l-200 0 -2
199 c-2 196 -2 198 -28 232 -46 61 -58 63 -317 64 l-148 0 0 1948 0 1947 34
39 c57 66 116 205 116 272 0 27 17 41 58 49 18 3 104 21 190 40 87 18 169 36
183 39 91 17 192 46 214 60 73 48 79 167 11 216 -59 42 -70 43 -247 4 -63 -13
-124 -26 -135 -28 -10 -3 -84 -18 -163 -35 -79 -17 -150 -31 -157 -31 -8 0
-21 14 -29 30 -22 43 -122 140 -175 172 -103 60 -256 88 -365 67z m195 -293
c86 -36 143 -126 143 -226 0 -98 -51 -183 -138 -225 -57 -28 -166 -27 -221 2
-126 67 -172 230 -98 350 28 45 117 118 133 109 4 -3 13 0 21 5 20 13 116 4
160 -15z m-2340 -671 c31 -33 31 -89 -1 -120 -80 -79 -199 29 -129 118 32 41
93 42 130 2z m2330 -1952 l0 -1873 -35 -1 c-19 0 -48 -1 -65 -1 -16 0 -42 1
-58 1 l-28 1 2 1873 c1 1029 2 1872 3 1872 0 0 42 0 91 0 l90 0 0 -1872z
m-2309 1247 c145 -251 367 -676 456 -875 70 -158 143 -357 143 -392 0 -9 -159
-12 -686 -12 -642 0 -685 1 -680 17 3 9 12 43 21 74 60 211 272 651 548 1136
60 107 113 190 117 185 5 -4 41 -64 81 -133z m818 -1559 c40 -2 -47 -242 -138
-381 -42 -65 -167 -193 -231 -237 -165 -112 -345 -167 -545 -166 -150 1 -271
32 -413 105 -244 126 -408 333 -477 606 -9 34 -14 66 -11 70 3 5 1706 8 1815
3z m1985 -1939 c1 -51 -1 -98 -4 -105 -4 -10 -129 -12 -587 -12 l-581 0 -1
108 -1 107 587 -2 587 -3 0 -93z m499 -402 c6 -5 10 -112 8 -192 l-1 -46
-1094 0 -1094 1 -1 116 c0 63 4 118 9 121 11 7 2166 7 2173 0z"/>
<path d="M5052 6319 c-105 -20 -155 -68 -156 -146 -1 -62 29 -106 87 -128 39
-15 49 -15 122 0 44 9 90 23 103 31 53 34 79 124 51 177 -39 71 -93 89 -207
66z"/>
</g>
</svg>
